<svg width="26" height="27" viewBox="0 0 26 27" fill="none" xmlns="http://www.w3.org/2000/svg">
    <path
        d="M13 7.47232C11.8133 7.47232 10.6533 7.82421 9.66658 8.4835C8.67988 9.14279 7.91085 10.0799 7.45672 11.1762C7.0026 12.2726 6.88378 13.479 7.11529 14.6429C7.3468 15.8067 7.91824 16.8758 8.75736 17.715C9.59647 18.5541 10.6656 19.1255 11.8295 19.357C12.9933 19.5885 14.1997 19.4697 15.2961 19.0156C16.3925 18.5615 17.3295 17.7924 17.9888 16.8057C18.6481 15.819 19 14.659 19 13.4723C18.9983 11.8815 18.3657 10.3564 17.2408 9.23151C16.116 8.10665 14.5908 7.47398 13 7.47232ZM13 17.4723C12.2089 17.4723 11.4355 17.2377 10.7777 16.7982C10.1199 16.3587 9.60723 15.734 9.30448 15.0031C9.00173 14.2721 8.92252 13.4679 9.07686 12.692C9.2312 11.916 9.61216 11.2033 10.1716 10.6439C10.731 10.0845 11.4437 9.70352 12.2196 9.54918C12.9956 9.39484 13.7998 9.47405 14.5307 9.7768C15.2616 10.0796 15.8864 10.5922 16.3259 11.25C16.7654 11.9078 17 12.6812 17 13.4723C17 14.5332 16.5786 15.5506 15.8284 16.3007C15.0783 17.0509 14.0609 17.4723 13 17.4723ZM19 0.472321H7C5.14409 0.474306 3.36477 1.21244 2.05245 2.52477C0.740121 3.83709 0.00198528 5.61641 0 7.47232V19.4723C0.00198528 21.3282 0.740121 23.1076 2.05245 24.4199C3.36477 25.7322 5.14409 26.4703 7 26.4723H19C20.8559 26.4703 22.6352 25.7322 23.9476 24.4199C25.2599 23.1076 25.998 21.3282 26 19.4723V7.47232C25.998 5.61641 25.2599 3.83709 23.9476 2.52477C22.6352 1.21244 20.8559 0.474306 19 0.472321ZM24 19.4723C24 20.7984 23.4732 22.0702 22.5355 23.0079C21.5979 23.9455 20.3261 24.4723 19 24.4723H7C5.67392 24.4723 4.40215 23.9455 3.46447 23.0079C2.52678 22.0702 2 20.7984 2 19.4723V7.47232C2 6.14624 2.52678 4.87447 3.46447 3.93679C4.40215 2.9991 5.67392 2.47232 7 2.47232H19C20.3261 2.47232 21.5979 2.9991 22.5355 3.93679C23.4732 4.87447 24 6.14624 24 7.47232V19.4723ZM21 6.97232C21 7.26899 20.912 7.559 20.7472 7.80568C20.5824 8.05235 20.3481 8.24461 20.074 8.35814C19.7999 8.47167 19.4983 8.50138 19.2074 8.4435C18.9164 8.38562 18.6491 8.24276 18.4393 8.03298C18.2296 7.8232 18.0867 7.55593 18.0288 7.26496C17.9709 6.97398 18.0007 6.67238 18.1142 6.3983C18.2277 6.12421 18.42 5.88994 18.6666 5.72512C18.9133 5.56029 19.2033 5.47232 19.5 5.47232C19.8978 5.47232 20.2794 5.63036 20.5607 5.91166C20.842 6.19296 21 6.5745 21 6.97232Z"
        fill="black" />
</svg>